<?xml version="1.0" encoding="utf-8"?>
<!-- Generator: Adobe Illustrator 27.2.0, SVG Export Plug-In . SVG Version: 6.00 Build 0)  -->
<svg version="1.1" xmlns="http://www.w3.org/2000/svg" xmlns:xlink="http://www.w3.org/1999/xlink" x="0px" y="0px"
	 viewBox="0 0 128 128" style="enable-background:new 0 0 128 128;" xml:space="preserve">
<style type="text/css">
	.st0{fill:#A8C1CA;stroke:#6E858E;stroke-miterlimit:10;}
	.st1{fill:none;stroke:#53646B;stroke-miterlimit:10;}
</style>
<g id="Layer_1">
	<path class="st0" d="M77.38,128H50.25C22.5,128,0,105.5,0,77.75l0-21.32c0-4.04,1.16-7.98,3.29-11.41
		C13.38,28.77,23.9,17.1,36.66,8.19C44.32,2.84,53.44,0,62.78,0l2.63,0c8.64,0,17.13,2.46,24.31,7.27
		c14.02,9.4,27.04,22.07,35.59,37.82c1.78,3.28,2.7,6.97,2.7,10.7v21.58C128,105.33,105.33,128,77.38,128z"/>
	<line class="st1" x1="-0.5" y1="69.5" x2="16.5" y2="52.5"/>
	<line class="st1" x1="16.5" y1="52.5" x2="36.5" y2="84.5"/>
	<line class="st1" x1="36.5" y1="84.5" x2="47.5" y2="66.5"/>
	<line class="st1" x1="47.5" y1="66.5" x2="57.5" y2="81.5"/>
	<line class="st1" x1="57.5" y1="81.5" x2="76.5" y2="54.5"/>
	<line class="st1" x1="100.5" y1="80.5" x2="114.5" y2="64.5"/>
	<line class="st1" x1="76.5" y1="54.5" x2="100.5" y2="80.5"/>
	<line class="st1" x1="114.5" y1="64.5" x2="127.5" y2="72.5"/>
</g>
<g id="Layer_2">
</g>
</svg>
